<svg xmlns="http://www.w3.org/2000/svg" xmlns:xlink="http://www.w3.org/1999/xlink" width="1080" zoomAndPan="magnify" viewBox="0 0 810 809.999993" height="1080" preserveAspectRatio="xMidYMid meet" version="1.0"><defs><g/></defs><rect x="-81" width="972" fill="#ffffff" y="-80.999999" height="971.999992" fill-opacity="1"/><rect x="-81" width="972" fill="#ffffff" y="-80.999999" height="971.999992" fill-opacity="1"/><g fill="#333f63" fill-opacity="1"><g transform="translate(354.167592, 702.841143)"><g><path d="M 114.234375 0.796875 C 94.523438 0.796875 81.207031 -4.257812 74.28125 -14.375 C 67.363281 -24.5 63.90625 -35.6875 63.90625 -47.9375 L 63.90625 -599.9375 C 63.90625 -625.5 79.347656 -638.28125 110.234375 -638.28125 C 142.191406 -638.28125 158.171875 -625.5 158.171875 -599.9375 L 158.171875 -79.890625 L 424.984375 -79.890625 C 444.160156 -79.890625 453.75 -66.835938 453.75 -40.734375 C 454.8125 -13.046875 445.222656 0.796875 424.984375 0.796875 Z M 114.234375 0.796875 "/></g></g></g><g fill="#715c8c" fill-opacity="1"><g transform="translate(-53.713573, 704.624985)"><g><path d="M 353.09375 -405.8125 L 198.90625 -405.8125 C 177.070312 -405.8125 162.695312 -399.421875 155.78125 -386.640625 C 148.320312 -375.453125 144.59375 -362.40625 144.59375 -347.5 L 144.59375 -117.4375 C 144.59375 -103.582031 148.851562 -93.0625 157.375 -85.875 C 165.894531 -78.6875 180.007812 -75.09375 199.71875 -75.09375 L 281.984375 -75.09375 C 301.160156 -75.09375 310.75 -62.578125 310.75 -37.546875 C 310.75 -26.890625 308.484375 -17.96875 303.953125 -10.78125 C 299.429688 -3.59375 292.109375 0 281.984375 0 L 185.328125 0 C 151.773438 0 121.953125 -8.519531 95.859375 -25.5625 C 69.765625 -41.539062 56.71875 -71.894531 56.71875 -116.625 L 56.71875 -354.6875 C 56.71875 -376.519531 60.175781 -395.425781 67.09375 -411.40625 C 74.019531 -427.382812 84.941406 -440.429688 99.859375 -450.546875 C 128.078125 -470.785156 156.300781 -480.90625 184.53125 -480.90625 L 353.09375 -480.90625 L 353.09375 -600.734375 C 353.09375 -626.296875 367.738281 -639.078125 397.03125 -639.078125 C 426.320312 -639.078125 440.96875 -626.296875 440.96875 -600.734375 L 440.96875 -33.546875 C 440.96875 -7.984375 426.320312 4.796875 397.03125 4.796875 C 385.84375 4.796875 375.722656 2.800781 366.671875 -1.1875 C 357.617188 -5.1875 353.09375 -14.109375 353.09375 -27.953125 Z M 353.09375 -405.8125 "/></g></g></g></svg>